<?xml version="1.0" encoding="UTF-8" standalone="no"?>
<!-- Created with Inkscape (http://www.inkscape.org/) -->

<svg
   xmlns:dc="http://purl.org/dc/elements/1.1/"
   xmlns:cc="http://creativecommons.org/ns#"
   xmlns:rdf="http://www.w3.org/1999/02/22-rdf-syntax-ns#"
   xmlns:svg="http://www.w3.org/2000/svg"
   xmlns="http://www.w3.org/2000/svg"
   xmlns:sodipodi="http://sodipodi.sourceforge.net/DTD/sodipodi-0.dtd"
   xmlns:inkscape="http://www.inkscape.org/namespaces/inkscape"
   version="1.1"
   id="svg224"
   width="466.5"
   height="171.08386"
   viewBox="0 0 466.5 171.08386"
   sodipodi:docname="ScribbleLogoFull.svg"
   inkscape:version="0.92.4 (5da689c313, 2019-01-14)">
  <metadata
     id="metadata230">
    <rdf:RDF>
      <cc:Work
         rdf:about="">
        <dc:format>image/svg+xml</dc:format>
        <dc:type
           rdf:resource="http://purl.org/dc/dcmitype/StillImage" />
        <dc:title />
      </cc:Work>
    </rdf:RDF>
  </metadata>
  <defs
     id="defs228" />
  <sodipodi:namedview
     pagecolor="#ffffff"
     bordercolor="#666666"
     borderopacity="1"
     objecttolerance="10"
     gridtolerance="10"
     guidetolerance="10"
     inkscape:pageopacity="0"
     inkscape:pageshadow="2"
     inkscape:window-width="1920"
     inkscape:window-height="1019"
     id="namedview226"
     showgrid="false"
     inkscape:pagecheckerboard="true"
     inkscape:zoom="0.78507675"
     inkscape:cx="-324.76661"
     inkscape:cy="101.15687"
     inkscape:window-x="0"
     inkscape:window-y="28"
     inkscape:window-maximized="1"
     inkscape:current-layer="svg224" />
  <path
     style="fill:#e55940;fill-opacity:1"
     d="M 40.704367,169.99415 C 20.794815,166.95928 7.133459,154.77677 1.725376,135.23465 0.213534,129.77161 0,123.6164 0,85.5 0,47.383596 0.213534,41.228394 1.725376,35.765349 6.623611,18.065568 18.027186,6.621892 35.605177,1.7664104 41.265311,0.2029396 46.997633,0 85.5,0 124.00237,0 129.73469,0.2029396 135.39482,1.7664104 152.97281,6.621892 164.37639,18.065568 169.27462,35.765349 170.78647,41.228394 171,47.383596 171,85.5 c 0,47.46574 -0.20937,49.57274 -6.07653,61.15102 -5.34328,10.54445 -18.13625,20.0561 -30.92347,22.99178 -7.43291,1.70644 -82.550059,1.98933 -93.295633,0.35135 z M 129.86156,103 c 8.72386,-15.4 16.09975,-28.45 16.39087,-29 1.63293,-3.085031 -4.84309,4.855591 -23.56956,28.89999 l -20.95049,26.89998 4.99711,11.10002 c 2.74841,6.105 5.28362,12.00001 5.63381,13.10001 0.35018,1.1 0.8617,-3.625 1.1367,-10.5 L 114,131 Z m -8.48651,43.58246 c 3.36872,-4.35465 6.12495,-8.14348 6.12495,-8.41963 0,-0.27616 -2.3625,-1.27881 -5.25,-2.22812 -2.8875,-0.94931 -5.8125,-1.93362 -6.5,-2.18736 -0.95043,-0.35077 -1.25,2.08069 -1.25,10.14566 0,5.83385 0.16877,10.60699 0.37505,10.60699 0.20628,0 3.13128,-3.56289 6.5,-7.91754 z M 151.87801,119.25 c 0.35705,-13.3375 0.92426,-31.225 1.26047,-39.75 0.3362,-8.525 0.38458,-15.275 0.1075,-15 -1.72935,1.716386 -37.73584,67.34629 -37.23147,67.8627 0.80489,0.82411 31.47542,10.89485 33.59991,11.03261 1.42779,0.0926 1.68946,-2.69853 2.26359,-24.14531 z M 125.06977,97.828 C 152.97993,62.054829 152.33775,62.91228 150.31787,64.116085 144.33543,67.681493 104.5,96.03111 104.5,96.72321 c 0,0.48007 1.55882,3.30969 3.46404,6.28803 1.90523,2.97835 3.0459,5.6736 2.53484,5.98945 -0.51106,0.31585 -3.85524,-1.27368 -7.43151,-3.53231 L 96.56505,101.3618 83.078,110.6809 c -7.41787,5.12551 -13.50751,9.60371 -13.532523,9.95157 -0.05041,0.70103 26.241693,7.62308 29.524293,7.773 1.57228,0.0718 7.82171,-7.27787 26,-30.57747 z m -19.38644,5.45533 c -0.71756,-0.71756 -1.18333,-0.7766 -1.18333,-0.15 0,1.33478 1.18261,2.51739 1.85,1.85 0.28417,-0.28416 -0.0158,-1.04916 -0.66667,-1.7 z M 99.96445,93.849122 C 98.4169,91.208424 96.9668,89.599585 96.74202,90.273926 96.51724,90.948267 95.47083,91.5 94.41667,91.5 93.3625,91.5 92.5,92.1375 92.5,92.916667 c 0,0.779166 -0.51022,1.586743 -1.13382,1.794603 -0.62361,0.20787 1.06193,1.80627 3.74563,3.55199 4.17148,2.71352 5.08163,2.97187 6.27291,1.78059 1.19128,-1.19128 0.98521,-2.09009 -1.42027,-6.194728 z M 91.40373,88.337788 93.80747,85.312418 68.679814,60.184764 43.55216,35.057111 l -3.549747,3.44055 -3.549747,3.44055 25.176379,25.190909 C 75.47605,80.984119 87.2992,92.104732 87.90271,91.841593 c 0.60351,-0.263139 2.17897,-1.839852 3.50102,-3.503805 z m -54.102785,-53.132415 3.193278,-3.294627 -4.293154,-4.213411 -4.293153,-4.213412 -3.403503,3.511524 -3.403502,3.511523 3.902492,3.996515 C 31.149774,36.701568 33.176294,38.5 33.506781,38.5 c 0.330487,0 2.037861,-1.482582 3.794164,-3.294627 z M 27.550291,19.060597 c -1.872223,-2.25589 -3.309751,-1.942992 -6.533782,1.422171 -2.804905,2.927691 -2.823276,3.020777 -0.994884,5.041127 l 1.862788,2.058358 3.48053,-3.480529 c 2.953722,-2.953722 3.284493,-3.716739 2.185348,-5.041127 z M 195,113.1602 c -4.71476,-2.17971 -6.74478,-5.15231 -7.27305,-10.65007 L 187.24554,97.5 h 5.12723 c 4.92296,0 5.12784,0.10956 5.14254,2.75 0.0196,3.52618 0.94832,4.93107 4.00774,6.06282 3.56044,1.3171 7.84745,-0.44866 8.62663,-3.55318 1.26066,-5.02286 -0.65964,-7.48903 -8.35807,-10.733956 -3.94805,-1.664126 -8.33384,-4.121375 -9.74618,-5.460554 -6.58063,-6.239719 -5.04051,-19.663792 2.7215,-23.721352 4.53545,-2.37089 14.34262,-2.278209 18.49521,0.174785 3.51464,2.076151 6.23786,6.827073 6.23786,10.882566 0,2.451979 -0.28261,2.598871 -5,2.598871 -4.57854,0 -5,-0.197664 -5,-2.345012 0,-4.592485 -5.54347,-7.171728 -9.38176,-4.365104 -1.28899,0.942531 -1.67707,2.356304 -1.44113,5.25 0.31823,3.902987 0.45204,4.025034 9.27521,8.460116 11.01884,5.538761 13.05958,8.034928 13.01528,15.9199 -0.0376,6.68998 -1.90368,10.22001 -6.71904,12.71013 -4.32614,2.23713 -15.3605,2.82768 -19.24856,1.03017 z m 39,-0.54565 c -6.6873,-3.07872 -7.94472,-6.42042 -8.34145,-22.168075 -0.37798,-15.003529 0.55447,-20.263537 4.40292,-24.837161 5.0197,-5.965574 18.30326,-6.33549 23.97121,-0.667542 2.32942,2.329421 4.45152,8.18347 4.46174,12.308228 0.005,2.027533 -0.47821,2.25 -4.88743,2.25 -5.15149,0 -6.10699,-0.84908 -6.10699,-5.4268 0,-2.77681 -2.91304,-5.5732 -5.80569,-5.5732 -4.1212,0 -5.66171,4.329057 -6.04304,16.981814 -0.515,17.088266 1.72665,22.908896 8.17343,21.223026 2.24075,-0.58597 4.6753,-5.88317 4.6753,-10.17272 0,-2.982804 0.0836,-3.03212 5.13889,-3.03212 h 5.13889 l -0.55795,6.1531 c -0.3373,3.71983 -1.3101,7.18005 -2.45997,8.75 -4.32249,5.90163 -14.01425,7.77739 -21.75986,4.21145 z M 265.5,87.5 v -26 h 11.03212 c 17.61546,0 21.53421,2.764977 20.77682,14.659613 -0.38957,6.118117 -0.69869,6.884979 -3.82859,9.497933 -2.13467,1.782103 -2.82389,2.842454 -1.84756,2.842454 3.49282,0 5.26101,3.837961 5.90043,12.8072 0.34084,4.78104 0.97095,9.4803 1.40023,10.4428 0.69177,1.551 0.14511,1.75 -4.80741,1.75 -6.45684,0 -6.32657,0.2248 -6.87174,-11.85902 C 286.87229,93.173442 285.56115,91.5 279.30887,91.5 H 275.5 v 11 11 h -5 -5 z m 19.36514,-5.07258 c 3.06913,-2.414179 3.54887,-7.177474 1.07816,-10.704914 C 284.7318,69.992859 283.40125,69.5 279.9433,69.5 H 275.5 v 7.5 7.5 h 3.36514 c 1.89023,0 4.51998,-0.908395 6,-2.07258 z M 305.5,87.5 v -26 h 5 5 v 26 26 h -5 -5 z m 19,0.123254 V 61.5 h 10.53212 c 17.09224,0 21.46178,3.330383 20.61868,15.715204 -0.0829,1.218362 -1.54742,3.805862 -3.25439,5.75 C 350.3916,85.248549 349.79883,86.5 350.72209,86.5 c 5.57644,0 8.87968,13.32968 4.88079,19.69567 -3.59464,5.72246 -6.1252,6.66029 -19.23265,7.12762 L 324.5,113.74651 Z M 344.5,103.5 c 2.0207,-2.0207 2.75484,-8.32365 1.23469,-10.600296 C 344.49471,91.042664 340.78793,89.5 337.56574,89.5 H 334.5 v 8 8 h 4 c 2.66667,0 4.66667,-0.66667 6,-2 z M 343.27749,80.943296 C 344.82696,79.858004 345.5,78.365499 345.5,76.014725 345.5,71.557331 343.26686,69.5 338.42857,69.5 H 334.5 v 6.5 6.5 h 3.27749 c 1.80263,0 4.27763,-0.700517 5.5,-1.556704 z M 364.5,87.623254 V 61.5 h 10.53212 c 17.09224,0 21.46178,3.330383 20.61868,15.715204 -0.0829,1.218362 -1.54742,3.805862 -3.25439,5.75 C 390.3916,85.248549 389.79883,86.5 390.72209,86.5 c 5.57644,0 8.87968,13.32968 4.88079,19.69567 -3.59464,5.72246 -6.1252,6.66029 -19.23265,7.12762 L 364.5,113.74651 Z M 384.5,103.5 c 2.0207,-2.0207 2.75484,-8.32365 1.23469,-10.600296 C 384.49471,91.042664 380.78793,89.5 377.56574,89.5 H 374.5 v 8 8 h 4 c 2.66667,0 4.66667,-0.66667 6,-2 z M 383.27749,80.943296 C 384.82696,79.858004 385.5,78.365499 385.5,76.014725 385.5,71.557331 383.26686,69.5 378.42857,69.5 H 374.5 v 6.5 6.5 h 3.27749 c 1.80263,0 4.27763,-0.700517 5.5,-1.556704 z M 404.5,87.5 v -26 h 5 5 V 83 104.5 h 9 9 v 4.5 4.5 h -14 -14 z m 33,0 v -26 h 14 14 v 4.5 4.5 h -9 -9 v 6 6 h 8.5 8.5 v 4.5 4.5 h -8.5 -8.5 v 6.5 6.5 h 9.5 9.5 v 4.5 4.5 H 452 437.5 Z"
     id="path234"
     inkscape:connector-curvature="0" />
</svg>
